<?xml version="1.0" encoding="utf-8"?>
<svg xmlns="http://www.w3.org/2000/svg" xmlns:xlink="http://www.w3.org/1999/xlink" version= "1.1" width="1920px" height="1300px" viewBox="-600 63 1920 1300">
<g id="layer1">
<g style="fill:rgb(115,205,229); fill-opacity:1.0; stroke-linejoin: miter">
<path d="M-600.001,61.661922C-600.3556,61.661922,-600.6957,61.80279,-600.9464,62.053543C-601.19714,62.304295,-601.3381,62.644386,-601.3381,62.999L-601.3371,1363.0C-601.3371,1363.7384,-600.73846,1364.337,-600.0,1364.337L1320.001,1364.338C1320.3556,1364.338,1320.6957,1364.1971,1320.9464,1363.9464C1321.1971,1363.6957,1321.338,1363.3556,1321.338,1363.001L1321.337,63.0C1321.337,62.26155,1320.7384,61.66292,1320.0,61.66292L-600.001,61.661922 Z"/>
</g>
<g style="fill:rgb(0,0,0); fill-opacity:0.29803923; stroke-linejoin: miter">
<path d="M1181.2402,1278.2579L1174.3896,1279.2646Q1125.6855,1282.3065,889.37195,1284.1301Q651.4236,1285.9525,328.97083,1285.608Q21.231628,1285.1268,-163.27484,1282.7908Q-347.63248,1280.4386,-312.7877,1277.2512Q-264.08377,1274.2091,-27.770172,1272.3851Q210.17834,1270.5627,532.6312,1270.9072Q840.36975,1271.3884,1024.8767,1273.725Q1083.9946,1274.4799,1122.2668,1275.3702L1154.4338,1276.2859Q1180.9421,1277.2305,1181.2402,1278.2579"/>
</g>
<g style="fill:rgb(255,255,255); fill-opacity:0.99607843; stroke-linejoin: miter">
<path d="M-81.40701,1214.645L301.89697,1214.6459L685.19885,1214.6464Q685.19885,1219.1284,685.19885,1223.6097Q301.89697,1223.6097,-81.40701,1223.6101Q-81.40701,1219.1284,-81.40701,1214.645"/>
</g>
<g style="fill:rgb(217,226,231); fill-opacity:1.0; stroke-linejoin: miter">
<path d="M-78.97992,1222.1558L304.3228,1222.157L687.6256,1222.1575L687.6256,1231.1187L-78.97992,1231.1226L-78.97992,1222.1558"/>
</g>
<g style="fill:rgb(255,255,255); fill-opacity:0.99607843; stroke-linejoin: miter">
<path d="M-80.48151,1230.4158L302.8224,1230.4175L686.1255,1230.4175L686.1255,1239.3805L-80.48151,1239.3844L-80.48151,1230.4158"/>
</g>
<g style="fill:rgb(217,226,231); fill-opacity:1.0; stroke-linejoin: miter">
<path d="M-80.48151,1235.6729L302.8224,1235.6763L686.1255,1235.6759L686.1255,1244.6388L-80.48154,1244.641L-80.48151,1235.6729"/>
</g>
<g style="fill:rgb(255,255,255); fill-opacity:0.99607843; stroke-linejoin: miter">
<path d="M-80.48154,1243.9359L302.8224,1243.9381L686.1255,1243.9376L686.1255,1252.9006L-80.48154,1252.9028L-80.48154,1243.9359"/>
</g>
<g style="fill:rgb(217,226,231); fill-opacity:1.0; stroke-linejoin: miter">
<path d="M-78.05737,1252.1978L305.24652,1252.1995L688.54956,1252.199L688.54956,1261.162L-78.05737,1261.1663L-78.05737,1252.1978"/>
</g>
<g style="fill:rgb(255,255,255); fill-opacity:0.99607843; stroke-linejoin: miter">
<path d="M-78.806915,1258.9578L304.49615,1258.9591L687.7998,1258.9595L687.7998,1267.9225L-78.806915,1267.9264L-78.806915,1258.9578"/>
</g>
<g style="fill:rgb(217,226,231); fill-opacity:1.0; stroke-linejoin: miter">
<path d="M-80.905334,1265.8718L302.39893,1265.874L685.7018,1265.8737L685.7018,1274.8348L-80.905334,1274.8387L-80.905334,1265.8718"/>
</g>
<g style="fill:rgb(255,255,255); fill-opacity:0.99607843; stroke-linejoin: miter">
<path d="M-109.963135,1154.2096L273.34094,1154.2104L656.6427,1154.2113Q656.6427,1158.693,656.6427,1163.1743Q273.34088,1163.1743,-109.963135,1163.1747Q-109.963135,1158.6935,-109.963135,1154.2096"/>
</g>
<g style="fill:rgb(217,226,231); fill-opacity:1.0; stroke-linejoin: miter">
<path d="M-107.53604,1161.7207L275.76678,1161.722L659.0697,1161.7224L659.0697,1170.6832L-107.53604,1170.6871L-107.53604,1161.7207"/>
</g>
<g style="fill:rgb(255,255,255); fill-opacity:0.99607843; stroke-linejoin: miter">
<path d="M-109.03766,1169.9807L274.26636,1169.982L657.5691,1169.982L657.5691,1178.9451L-109.03766,1178.949L-109.03766,1169.9807"/>
</g>
<g style="fill:rgb(217,226,231); fill-opacity:1.0; stroke-linejoin: miter">
<path d="M-109.03766,1175.2374L274.26636,1175.2413L657.5691,1175.2408L657.5691,1184.2039L-109.03766,1184.206L-109.03766,1175.2374"/>
</g>
<g style="fill:rgb(255,255,255); fill-opacity:0.99607843; stroke-linejoin: miter">
<path d="M-109.03766,1183.501L274.26636,1183.5027L657.5691,1183.5022L657.5691,1192.4656L-109.03766,1192.4674L-109.03766,1183.501"/>
</g>
<g style="fill:rgb(217,226,231); fill-opacity:1.0; stroke-linejoin: miter">
<path d="M-106.613464,1191.7623L276.69055,1191.764L659.9935,1191.7635L659.9935,1200.7269L-106.613464,1200.7313L-106.613464,1191.7623"/>
</g>
<g style="fill:rgb(255,255,255); fill-opacity:0.99607843; stroke-linejoin: miter">
<path d="M-107.36304,1198.5228L275.93988,1198.5237L659.2435,1198.5245L659.2435,1207.4874L-107.36304,1207.4918L-107.36304,1198.5228"/>
</g>
<g style="fill:rgb(217,226,231); fill-opacity:1.0; stroke-linejoin: miter">
<path d="M-109.461334,1205.4374L273.84277,1205.4386L657.1456,1205.4386L657.1456,1214.3999L-109.461334,1214.4038L-109.461334,1205.4374"/>
</g>
<g style="fill:rgb(255,255,255); fill-opacity:0.99607843; stroke-linejoin: miter">
<path d="M-102.19241,1100.0305L281.11163,1100.0314L664.4136,1100.0326Q664.4136,1104.5139,664.4136,1108.9951Q281.11163,1108.9956,-102.19241,1108.9961Q-102.19241,1104.5144,-102.19241,1100.0305"/>
</g>
<g style="fill:rgb(217,226,231); fill-opacity:1.0; stroke-linejoin: miter">
<path d="M-99.76553,1107.5416L283.53766,1107.543L666.8406,1107.543L666.8406,1116.5042L-99.76553,1116.508L-99.76553,1107.5416"/>
</g>
<g style="fill:rgb(255,255,255); fill-opacity:0.99607843; stroke-linejoin: miter">
<path d="M-101.26691,1115.8013L282.03723,1115.803L665.3401,1115.803L665.3401,1124.766L-101.26691,1124.7699L-101.26691,1115.8013"/>
</g>
<g style="fill:rgb(217,226,231); fill-opacity:1.0; stroke-linejoin: miter">
<path d="M-101.26691,1121.0579L282.03723,1121.0618L665.3401,1121.0618L665.3401,1130.0248L-101.26691,1130.0269L-101.26691,1121.0579"/>
</g>
<g style="fill:rgb(255,255,255); fill-opacity:0.99607843; stroke-linejoin: miter">
<path d="M-101.26691,1129.3218L282.03723,1129.3236L665.3401,1129.3231L665.3401,1138.2865L-101.26691,1138.2882L-101.26691,1129.3218"/>
</g>
<g style="fill:rgb(217,226,231); fill-opacity:1.0; stroke-linejoin: miter">
<path d="M-98.84274,1137.5831L284.46118,1137.585L667.7643,1137.5845L667.7643,1146.5479L-98.84274,1146.5518L-98.84274,1137.5831"/>
</g>
<g style="fill:rgb(255,255,255); fill-opacity:0.99607843; stroke-linejoin: miter">
<path d="M-99.592285,1144.3436L283.7107,1144.3446L667.0143,1144.3455L667.0143,1153.308L-99.592285,1153.3127L-99.592285,1144.3436"/>
</g>
<g style="fill:rgb(217,226,231); fill-opacity:1.0; stroke-linejoin: miter">
<path d="M-101.690735,1151.2578L281.61346,1151.2595L664.9164,1151.2592L664.9164,1160.2203L-101.690735,1160.2246L-101.690735,1151.2578"/>
</g>
<g style="fill:rgb(255,255,255); fill-opacity:0.99607843; stroke-linejoin: miter">
<path d="M-130.74863,1039.5955L252.55554,1039.5968L635.8574,1039.5972Q635.8574,1044.079,635.8574,1048.5607Q252.55554,1048.5607,-130.74863,1048.5607Q-130.74863,1044.0793,-130.74863,1039.5955"/>
</g>
<g style="fill:rgb(217,226,231); fill-opacity:1.0; stroke-linejoin: miter">
<path d="M-128.32153,1047.107L254.98163,1047.1075L638.2844,1047.1084L638.2844,1056.0696L-128.32153,1056.0735L-128.32153,1047.107"/>
</g>
<g style="fill:rgb(255,255,255); fill-opacity:0.99607843; stroke-linejoin: miter">
<path d="M-129.82303,1055.3662L253.48114,1055.3684L636.78406,1055.368L636.78406,1064.3309L-129.82303,1064.3348L-129.82303,1055.3662"/>
</g>
<g style="fill:rgb(217,226,231); fill-opacity:1.0; stroke-linejoin: miter">
<path d="M-129.82303,1060.6233L253.48114,1060.6268L636.78406,1060.6268L636.78406,1069.5897L-129.82303,1069.5919L-129.82303,1060.6233"/>
</g>
<g style="fill:rgb(255,255,255); fill-opacity:0.99607843; stroke-linejoin: miter">
<path d="M-129.82303,1068.8864L253.48114,1068.8885L636.78406,1068.8885L636.78406,1077.8511L-129.82306,1077.8538L-129.82303,1068.8864"/>
</g>
<g style="fill:rgb(217,226,231); fill-opacity:1.0; stroke-linejoin: miter">
<path d="M-127.398865,1077.1482L255.90521,1077.1499L639.2081,1077.1499L639.2081,1086.1129L-127.398865,1086.1172L-127.398865,1077.1482"/>
</g>
<g style="fill:rgb(255,255,255); fill-opacity:0.99607843; stroke-linejoin: miter">
<path d="M-128.14844,1083.9082L255.15466,1083.9095L638.4584,1083.9104L638.4584,1092.8729L-128.14844,1092.8773L-128.14844,1083.9082"/>
</g>
<g style="fill:rgb(217,226,231); fill-opacity:1.0; stroke-linejoin: miter">
<path d="M-130.24673,1090.8228L253.05743,1090.8246L636.36035,1090.8241L636.36035,1099.7853L-130.24673,1099.7892L-130.24673,1090.8228"/>
</g>
<g style="fill:rgb(255,255,255); fill-opacity:1.0; stroke-linejoin: miter">
<path d="M202.20367,289.94543L560.4298,289.94568L918.6553,289.94635Q918.6549,782.4514,918.655,1274.9551Q560.42896,1274.9559,202.20349,1274.9572Q202.20361,782.4514,202.20367,289.94543"/>
</g>
<g style="fill:rgb(125,139,150); fill-opacity:1.0; stroke-linejoin: miter">
<path d="M292.90564,987.1207L480.92682,987.1199L668.9474,987.1207Q668.94727,1002.4889,668.94727,1017.85913Q480.92682,1017.86,292.90564,1017.86Q292.90564,1002.48975,292.90564,987.1207 Z"/>
</g>
<g style="fill:rgb(125,139,150); fill-opacity:1.0; stroke-linejoin: miter">
<path d="M292.90564,1033.5197L441.16254,1033.5214L589.41907,1033.5201Q589.41907,1048.8887,589.41907,1064.2585Q441.1623,1064.2598,292.90564,1064.2611Q292.90564,1048.8895,292.90564,1033.5197 Z"/>
</g>
<g style="fill:rgb(125,139,150); fill-opacity:1.0; stroke-linejoin: miter">
<path d="M292.90564,1079.9191L484.59448,1079.9213L676.2825,1079.9208Q676.2825,1095.289,676.2825,1110.6592Q484.59448,1110.6592,292.90564,1110.6592Q292.90564,1095.289,292.90564,1079.9191 Z"/>
</g>
<g style="fill:rgb(125,139,150); fill-opacity:1.0; stroke-linejoin: miter">
<path d="M292.90564,1126.3197L540.37463,1126.3214L540.37463,1157.0576L292.90564,1157.0603L292.90564,1126.3197 Z"/>
</g>
<g style="fill:rgb(125,139,150); fill-opacity:1.0; stroke-linejoin: miter">
<path d="M292.9057,805.6218L480.92743,805.621L668.9481,805.62134Q668.9481,820.9912,668.9481,836.3602Q480.92737,836.3611,292.90564,836.36194Q292.9057,820.9917,292.9057,805.6218 Z"/>
</g>
<g style="fill:rgb(125,139,150); fill-opacity:1.0; stroke-linejoin: miter">
<path d="M292.90564,852.02075L441.1626,852.0221L589.41956,852.02075Q589.41956,867.3906,589.41956,882.7604Q441.1626,882.76086,292.90564,882.7617Q292.90564,867.3906,292.90564,852.02075 Z"/>
</g>
<g style="fill:rgb(125,139,150); fill-opacity:1.0; stroke-linejoin: miter">
<path d="M292.90564,898.42017L484.59485,898.42224L676.2831,898.4214Q676.2831,913.7904,676.2831,929.16064Q484.59485,929.16064,292.90564,929.16064Q292.90564,913.7904,292.90564,898.42017 Z"/>
</g>
<g style="fill:rgb(125,139,150); fill-opacity:1.0; stroke-linejoin: miter">
<path d="M292.90564,944.8208L540.3751,944.8225L540.3751,975.5592L292.90564,975.5614L292.90564,944.8208 Z"/>
</g>
<g style="fill:rgb(146,159,168); fill-opacity:1.0; stroke-linejoin: miter">
<path d="M265.44763,1177.5969L553.9635,1177.5978L842.47925,1177.5986Q842.47925,1208.8126,842.47925,1240.0261Q553.9635,1240.027,265.44788,1240.0273Q265.44788,1208.8126,265.44763,1177.5969"/>
</g>
<g style="fill:rgb(146,159,168); fill-opacity:1.0; stroke-linejoin: miter">
<path d="M718.2809,806.4149L894.8854,806.4176L894.8854,1149.4966L718.28076,1149.4993L718.2809,806.4149"/>
</g>
<g style="fill:rgb(125,139,150); fill-opacity:1.0; stroke-linejoin: miter">
<path d="M747.87744,816.3247L806.583,816.3251L865.28894,816.32556Q865.28894,834.0845,865.28894,851.84375Q806.583,851.84375,747.87744,851.8446Q747.87744,834.0845,747.87744,816.3247"/>
</g>
<g style="fill:rgb(125,139,150); fill-opacity:1.0; stroke-linejoin: miter">
<path d="M292.9057,759.57654L540.37476,759.57825L540.37476,790.31445L292.9057,790.317L292.9057,759.57654 Z"/>
</g>
<g style="fill:rgb(125,139,150); fill-opacity:1.0; stroke-linejoin: miter">
<path d="M292.9057,713.1758L484.59454,713.178L676.2826,713.1776Q676.2826,728.54565,676.2826,743.9159Q484.59454,743.9159,292.9057,743.9159Q292.9057,728.54565,292.9057,713.1758 Z"/>
</g>
<g style="fill:rgb(125,139,150); fill-opacity:1.0; stroke-linejoin: miter">
<path d="M292.9057,620.37756L480.92688,620.3766L668.9474,620.37756Q668.9474,635.7456,668.9474,651.11584Q480.92688,651.1168,292.9057,651.1168Q292.9057,635.74646,292.9057,620.37756 Z"/>
</g>
<g style="fill:rgb(125,139,150); fill-opacity:1.0; stroke-linejoin: miter">
<path d="M292.9057,666.7765L441.1626,666.7782L589.4192,666.77686Q589.4192,682.1454,589.4192,697.51526Q441.16235,697.5166,292.9057,697.5178Q292.9057,682.14624,292.9057,666.7765 Z"/>
</g>
<g style="fill:rgb(125,139,150); fill-opacity:1.0; stroke-linejoin: miter">
<path d="M292.9057,578.07764L540.3751,578.07935L540.3751,608.8159L292.9057,608.8181L292.9057,578.07764 Z"/>
</g>
<g style="fill:rgb(125,139,150); fill-opacity:1.0; stroke-linejoin: miter">
<path d="M292.9057,531.6769L484.5949,531.6791L676.2831,531.6782Q676.2831,547.04724,676.2831,562.4175Q484.5949,562.4175,292.9057,562.4175Q292.9057,547.04724,292.9057,531.6769 Z"/>
</g>
<g style="fill:rgb(125,139,150); fill-opacity:1.0; stroke-linejoin: miter">
<path d="M292.90576,438.87854L480.9275,438.8777L668.9481,438.87817Q668.9481,454.24805,668.9481,469.61694Q480.9275,469.6178,292.90576,469.61877Q292.90576,454.2484,292.90576,438.87854 Z"/>
</g>
<g style="fill:rgb(125,139,150); fill-opacity:1.0; stroke-linejoin: miter">
<path d="M292.90576,485.2776L441.16272,485.2788L589.41956,485.2776Q589.41956,500.64734,589.41956,516.0172Q441.16266,516.0177,292.9057,516.01855Q292.9057,500.64734,292.90576,485.2776 Z"/>
</g>
<g style="fill:rgb(255,255,255); fill-opacity:1.0; stroke-linejoin: miter">
<path d="M-374.86646,339.81094L-357.4218,315.75763Q-297.7973,247.39896,-210.97128,238.45859Q-123.76514,229.80789,-49.633514,288.29102Q18.725006,347.91553,27.665405,434.74152Q36.316223,521.9479,-22.16681,596.0795Q-81.79137,664.43823,-168.61742,673.3787Q-255.82364,682.0293,-329.95523,623.54626Q-398.31393,563.92163,-407.25427,477.09552Q-410.0153,449.11035,-405.5169,420.97363L-399.12152,393.1579Q-390.87018,365.4836,-374.86646,339.81094"/>
</g>
<g style="fill:rgb(115,205,229); fill-opacity:1.0; stroke-linejoin: miter">
<path d="M-229.95297,598.93915L-219.51575,570.42017Q-179.97482,486.5652,-97.10263,453.5373Q-13.775848,420.68823,75.43631,457.49524Q159.29086,497.03613,192.31851,579.9083Q225.16745,663.2353,188.36032,752.4477Q148.8193,836.30273,65.947235,869.3307Q-17.379639,902.17993,-106.591705,865.3728Q-190.44649,825.83185,-223.47406,742.9596Q-234.00072,716.21515,-237.4322,687.29517L-238.90895,658.1612Q-238.52141,628.6484,-229.95297,598.93915"/>
</g>
<g style="fill:rgb(99,112,121); fill-opacity:1.0; stroke-linejoin: miter">
<path d="M-210.09021,615.7527L-199.653,587.2335Q-160.11201,503.37854,-77.23979,470.35083Q6.087158,437.5019,95.299194,474.30896Q179.15384,513.8498,212.18143,596.72205Q245.03024,680.0491,208.2232,769.2615Q168.68207,853.1163,85.81,886.1442Q2.4830933,918.99316,-86.72899,882.1862Q-170.5838,842.6452,-203.61136,759.77295Q-214.13802,733.02844,-217.56952,704.1085L-219.04623,674.97455Q-218.65869,645.4617,-210.09021,615.7527"/>
</g>
<g style="fill:rgb(99,112,121); fill-opacity:1.0; stroke-linejoin: miter">
<path d="M21.61914,254.53589L20.23471,269.73572L27.067322,271.9046C46.58908,278.3226,64.10605,295.94678,73.19171,318.1464L78.1337,330.2665L61.39984,328.74576C52.05725,327.8915,44.488953,327.6241,44.450806,328.04236C44.323853,329.43695,86.39755,413.97614,87.3736,414.065C88.349884,414.154,145.98065,340.24277,146.12042,338.70892C146.15854,338.2904,138.10825,337.13547,128.34695,336.2464L110.49774,334.62354L106.74753,323.31204C96.40842,291.7183,82.94852,271.22968,63.554993,257.2306C56.29181,252.06946,37.417206,243.18015,28.213806,240.79507L23.00357,239.33636L21.61914,254.53589 Z"/>
</g>
<g style="fill:rgb(255,255,255); fill-opacity:1.0; stroke-linejoin: miter">
<path d="M-315.78357,757.2568L-345.58145,795.74023L-326.87027,798.7095C-314.2569,800.7019,-308.07053,802.2502,-308.15933,803.226C-308.4896,806.85156,-294.52502,840.3219,-289.24002,848.6768C-281.48367,860.77203,-269.78482,872.8048,-258.73138,879.57623C-250.35265,884.83826,-228.85355,894.24866,-224.25165,894.66785C-222.71791,894.80743,-222.0073,891.63855,-220.9277,879.7854L-219.55594,864.7251L-226.2239,862.2899C-246.11316,855.27606,-261.72903,839.9343,-271.89215,817.2151L-277.3666,804.7649L-260.0118,805.6424L-242.65665,806.5202L-258.68784,774.1274C-267.47015,756.3144,-277.2028,736.58704,-280.28256,730.2605L-285.998,718.9133L-315.78357,757.2568 Z"/>
</g>
<g style="fill:rgb(99,112,121); fill-opacity:1.0; stroke-linejoin: miter">
<path d="M-168.83873,466.30237L-202.60638,431.98688L-202.20746,431.59912C-178.38583,405.79205,-161.25525,375.95523,-150.93796,344.2961L-111.45334,344.8597L-111.06792,317.84024L-205.4075,316.49472L-205.02246,289.50546L-231.98099,289.12106L-232.36554,316.0795L-326.70532,314.73398L-327.08777,341.5412L-176.53143,343.68927C-186.00989,369.5798,-200.58217,394.03598,-220.2843,415.3322C-232.6115,401.20526,-242.77325,385.89874,-250.77426,369.74536L-277.7328,369.36093C-268.21277,391.4673,-255.01447,412.4157,-238.45901,431.3847L-307.9563,498.15155L-289.16663,517.4849L-220.82436,451.06482L-179.51694,493.568L-168.83873,466.30237L-168.83871,466.3026 Z"/>
</g>
<g>
<g style="fill:rgb(255,255,255); fill-opacity:1.0; stroke-linejoin: miter">
<path d="M7.1753845,609.3821L11.910126,626.5768L34.569702,700.38007L-26.355103,698.8361L1.4555664,626.3118L7.1753845,609.3821 Z M-5.204193,580.6907L-79.82518,763.7359L-51.465668,764.4546L-33.95047,718.6043L40.79355,720.4983L55.24286,767.1586L84.203156,767.8925L84.203156,767.8925L20.631744,581.3453L-5.204193,580.6907 Z"/>
</g>
</g>
<g style="fill:rgb(146,159,168); fill-opacity:1.0; stroke-linejoin: miter">
<path d="M739.49286,496.7306L804.2725,496.73126L869.0522,496.73193Q869.0522,605.8823,869.0522,715.0327Q804.2725,715.0333,739.49286,715.03394Q739.49286,605.88226,739.49286,496.7306"/>
</g>
</g>
</svg>